<?xml version="1.0" encoding="utf-8"?>
<!-- Generator: Adobe Illustrator 23.0.2, SVG Export Plug-In . SVG Version: 6.00 Build 0)  -->
<svg version="1.1" id="Layer_1" xmlns="http://www.w3.org/2000/svg" xmlns:xlink="http://www.w3.org/1999/xlink" x="0px" y="0px"
	 viewBox="0 0 1280 1024" style="enable-background:new 0 0 1280 1024;" xml:space="preserve">
<style type="text/css">
	.st0{opacity:0.2;}
	.st1{fill:#231F20;}
	.st2{fill:#1565C0;}
	.st3{display:none;}
	.st4{display:inline;fill:#4E2980;}
	.st5{display:inline;fill:#F7AB00;}
	.st6{display:inline;fill:#FFFFFF;}
	.st7{fill:#B5940C;}
	.st8{fill:#FFFFFF;}
</style>
<g>
	<g class="st0">
		<path class="st1" d="M-864.7,732"/>
	</g>
	<g>
		<path class="st2" d="M-864.7,728"/>
	</g>
</g>
<g>
	<g class="st0">
		<path class="st1" d="M-868.6,732.4"/>
	</g>
	<g>
		<path class="st2" d="M-868.6,728.4"/>
	</g>
</g>
<g class="st3">
	<rect x="127.3" y="1.7" class="st4" width="1022.3" height="1022.3"/>
	<path class="st5" d="M880.9,549.8l-67.6-264.9L634,122.5L454.6,284.9L387,549.8l128,60.3h101.2v-90.5c0,0-187.9,99.2-138.9-123
		c16.3-73.6,102.7-172,152.1-199.4l4.6-2.4c48.4,23.6,139.7,125.7,156.5,201.8c49,222.1-138.9,123-138.9,123v90.5h101.2L880.9,549.8
		z"/>
	<path class="st6" d="M537.4,825.6c-3.4-6.4-7.7-11.6-13-15.7c-5.3-4-11.2-7.2-17.7-9.6c-6.5-2.3-12.8-4.5-19.1-6.3
		c-4.3-1.5-8.4-2.8-12.3-4c-3.9-1.1-7.2-2.5-10-4.2s-5.1-3.8-6.8-6.2c-1.7-2.4-2.5-5.6-2.5-9.6c0-4.7,0.9-8.6,2.7-11.6
		c1.8-3,4.5-5.2,8.2-6.8c3.7-1.5,8.4-2.6,14.3-3.1c5.8-0.5,12.7-0.8,20.6-0.8c4.9,0,9.7,0.2,14.3,0.7s8.6,0.9,12,1.3
		c4,0.7,7.7,1.4,11.3,2v-30.8c-3.2-1.3-7.2-2.5-12.1-3.7c-4.4-0.9-9.9-1.8-16.8-2.7c-6.9-0.8-15.4-1.2-25.5-1.2
		c-9,0-17.8,0.8-26.4,2.4c-8.6,1.6-16.2,4.5-23,8.6s-12.2,9.8-16.4,16.9c-4.1,7.2-6.2,16.2-6.2,27.1c0,10.7,1.6,19.6,4.9,26.4
		c3.3,6.8,7.5,12.4,12.7,16.6c5.2,4.2,11,7.5,17.3,9.8c6.4,2.3,12.6,4.2,18.6,5.9c4.5,1.3,8.8,2.6,12.7,4c4,1.3,7.4,2.9,10.3,4.8
		c2.9,1.9,5.3,4.2,7.1,6.8c1.8,2.6,2.7,6,2.7,10.2c0,9.4-3.4,15.7-10.2,18.8c-6.8,3.1-18.1,4.6-33.9,4.6c-5.6,0-11.2-0.2-16.7-0.5
		c-5.5-0.4-10.4-0.9-14.7-1.4c-5.1-0.7-9.9-1.5-14.4-2.3v31.6c5.1,1.3,10.5,2.5,16.4,3.4c4.9,0.9,10.5,1.7,16.9,2.4s13.1,1,20,1
		c8.7,0,17.7-0.8,27-2.4c9.3-1.6,17.9-4.6,25.7-9s14.2-10.5,19.3-18.4c5.1-7.8,7.6-17.9,7.6-30.3
		C542.5,840.2,540.8,832.1,537.4,825.6 M572.9,859.8c4.8,12.6,11.6,22.7,20.2,30.2c8.7,7.6,19.1,12.9,31.4,16
		c12.3,3.1,25.9,4.6,41,4.6c2.8,0,5.8-0.1,9-0.4c3.2-0.3,6.4-0.7,9.5-1.2s6-1,8.8-1.7c2.7-0.6,5-1.4,6.9-2.1v-30.5
		c-2.5,0.3-4.8,0.7-7.1,0.9c-2.1,0.2-4.2,0.3-6.4,0.4c-2.2,0.1-4.1,0.1-5.8,0.1c-10.7,0-20.5-0.9-29.4-2.8
		c-8.8-1.9-16.4-5.3-22.7-10.3s-11.2-11.8-14.7-20.4c-3.5-8.6-5.2-19.6-5.2-33.2c0-12.2,1.5-22.3,4.4-30.3s7.2-14.4,12.7-19
		c5.5-4.7,12.2-8,20.1-9.9c7.8-1.9,16.6-2.8,26.4-2.8c2.3,0,4.8,0.1,7.6,0.3s5.4,0.4,7.9,0.5c2.8,0.4,5.6,0.7,8.5,0.8v-31
		c-4.3-1.5-9.7-2.7-16.1-3.5c-6.4-0.8-12.9-1.2-19.5-1.2c-12.8,0-24.9,1.8-36.4,5.3c-11.5,3.6-21.5,9.3-30.1,17.3
		c-8.6,7.9-15.4,18.1-20.5,30.6s-7.6,27.7-7.6,45.6C565.7,831.3,568.1,847.3,572.9,859.8 M730.1,907.8h56.2c9.4,0,19.4-0.4,29.8-1.1
		c10.5-0.8,20.1-3,29-6.5c8.8-3.6,16.1-9.2,21.9-16.7c5.7-7.5,8.6-18.1,8.6-31.6c0-9-1.5-16.6-4.3-22.7c-2.9-6.1-7-11.1-12.2-15
		c-5.1-3.9-11.4-6.7-18.8-8.6c-7.3-1.9-15.5-3-24.3-3.4c0.8-0.6,2.4-1.2,4.8-2c2.4-0.7,5.2-1.8,8.3-3.4c3.1-1.5,6.3-3.3,9.7-5.5
		s6.5-4.9,9.3-8.3c2.9-3.4,5.2-7.4,7.1-12.2c1.9-4.7,2.8-10.3,2.8-16.7c0-9.6-2-17-5.9-22.1c-4-5.2-8.9-8.9-15-11.3
		c-6-2.3-12.7-3.7-20.1-4.2c-7.3-0.4-14.5-0.7-21.5-0.7H730v192H730.1z M772.7,797.1v-48.3h11.7c3.4,0,6.9,0.1,10.6,0.4
		c3.7,0.3,7,1,9.9,2.3c3,1.2,5.4,3,7.4,5.3c2,2.4,3,5.6,3,9.8c0,9.2-2.7,16.6-8.1,22.2c-5.4,5.6-13.8,8.3-25.1,8.3H772.7z
		 M772.7,874.8v-50.3h13c5.3,0,10.7,0.2,16.3,0.6c5.6,0.4,10.6,1.3,15.2,3c4.5,1.6,8.3,4.2,11.2,7.6c2.9,3.5,4.4,8.3,4.4,14.6
		c0,5.8-1.2,10.4-3.7,13.7c-2.4,3.3-5.8,5.7-9.9,7.3c-4.2,1.7-9,2.6-14.6,3c-5.6,0.3-11.4,0.6-17.4,0.6L772.7,874.8L772.7,874.8z"/>
</g>
<circle class="st7" cx="632.7" cy="514.6" r="504"/>
<g>
	<polygon class="st8" points="636.7,99.8 602.9,185.6 636.7,168.8 	"/>
	<polygon class="st8" points="636.7,99.8 670.4,185.6 636.7,168.8 	"/>
</g>
<g>
	<polygon class="st8" points="584.9,239 559.3,302 636.7,270.5 636.7,220.3 	"/>
	<polygon class="st8" points="688.5,239 714,302 636.7,270.5 636.7,220.3 	"/>
</g>
<g>
	<polygon class="st8" points="540.3,357.4 515.5,419.4 636.7,370 636.7,319.8 	"/>
	<polygon class="st8" points="730.2,358.5 750.1,416.2 636.7,370 636.7,319.8 	"/>
</g>
<g>
	<polygon class="st8" points="495.2,473.1 470.4,535 636.7,469.6 636.7,419.4 	"/>
	<polygon class="st8" points="779.5,477.2 799.5,535 636.7,469.6 636.7,419.4 	"/>
</g>
<g>
	<polygon class="st8" points="451.7,589.1 427,651 636.7,569.9 636.7,519.7 	"/>
	<polygon class="st8" points="824,595.2 843.9,653 636.7,569.9 636.7,519.7 	"/>
</g>
<g>
	<polygon class="st8" points="403.8,711 379,772.9 636.7,670.3 636.7,620.1 	"/>
	<polygon class="st8" points="868.3,713.3 888.2,771.1 636.7,670.3 636.7,620.1 	"/>
</g>
<g>
	<polygon class="st8" points="636.7,715.5 383.3,821.8 636.7,920.9 	"/>
	<polygon class="st8" points="635.8,715.5 889.1,821.8 635.8,920.9 	"/>
</g>
</svg>
