<?xml version="1.0" encoding="utf-8"?>
<!-- Generator: Adobe Illustrator 23.0.2, SVG Export Plug-In . SVG Version: 6.00 Build 0)  -->
<svg version="1.1" id="Layer_1" xmlns="http://www.w3.org/2000/svg" xmlns:xlink="http://www.w3.org/1999/xlink" x="0px" y="0px"
	 viewBox="0 0 1000 268" style="enable-background:new 0 0 1000 268;" xml:space="preserve">
<style type="text/css">
	.st0{fill:none;}
	.st1{display:none;}
	.st2{font-family:'BrowalliaUPC-Bold';}
	.st3{font-size:280px;}
	.st4{letter-spacing:-20.6;}
	.st5{fill:#FFFFFF;}
	.st6{display:inline;fill:#FFFFFF;}
</style>
<rect x="113.6" y="63.6" class="st0" width="828.4" height="149.4"/>
<text transform="matrix(0.97 0 0 1 113.5532 194.3115)" class="st1 st2 st3 st4">KARMART</text>
<g>
	<path class="st5" d="M126.8,194.3V63.5L156,64v52l46-51h37l-46,50l48.3,79.3L205,194l-32-57l-18,18v39L126.8,194.3z"/>
	<path class="st5" d="M348.5,194.3L317,193l-10-28h-46l-10,29l-29.8,0.3l49.5-130.8h27.1L348.5,194.3z M297,140l-14-38l-13,38H297z"
		/>
	<path class="st5" d="M341.8,194.3V63.5h54c16.7,0,29.2,2.6,37.5,7.8c8.3,5.2,12.4,14.8,12.4,28.8c0,21-9.2,33.5-31.6,36.9
		c8.7,4.6,16.1,15,26.3,31.7l15.5,25.6L422,193l-26-40c-2.7-4.2-4.6-7-8-9c-3.4-2-7.8-2-15-2h-3l1,52L341.8,194.3z M370,117l17,1
		c12.9,0,19,0,23-3c4-3,5-5.2,5-12c0-6-1.3-7.8-5-10c-3.7-2.2-8.2-3-22-3h-18V117z"/>
	<path class="st5" d="M683.8,194.3V63.5h54c16.7,0,29.2,2.6,37.5,7.8c8.3,5.2,12.4,14.8,12.4,28.8c0,21-9.2,33.5-31.6,36.9
		c8.7,4.6,16.1,15,26.3,31.7l15.5,25.6L764,193l-26-40c-2.7-4.2-4.6-7-8-9c-3.4-2-7.8-2-15-2h-3l1,52L683.8,194.3z M712,117l17,1
		c12.9,0,19,0,23-3c4-3,5-5.2,5-12c0-6-1.3-7.8-5-10c-3.7-2.2-8.2-3-22-3h-18V117z"/>
	<path class="st5" d="M449,194.3V63.5l40,0.5l20,79l20.9-79.3l41.6-0.2v130.8L543,194l-1-82l-19.4,82.3L496,194l-20-83v83L449,194.3
		z"/>
	<path class="st5" d="M691,194.3l-32-0.3l-12-29h-43l-11,29l-29.3,0.3L610,63l30.4,0.5L691,194.3z M638,139l-14-36l-12,36H638z"/>
	<path class="st5" d="M818,193V90l-35.2-0.4V65H881v25l-34.9-0.4L846,193H818z"/>
</g>
<path class="st5" d="M535,25c-1.7,0-3,1.3-3,3c0,0.8,0.3,1.5,0.8,2L519,41l-9.3-13.1c1.3-0.3,2.3-1.5,2.3-2.9c0-1.7-1.3-3-3-3
	s-3,1.3-3,3c0,1.4,1,2.6,2.4,2.9L499,42l-14.2-11.6c0.8-0.5,1.2-1.4,1.2-2.4c0-1.7-1.3-3-3-3s-3,1.3-3,3s1.3,3,3,3
	c0.2,0,0.4,0,0.6-0.1L491,57h36l6.6-26.4c0.4,0.2,0.9,0.4,1.4,0.4c1.7,0,3-1.3,3-3S536.7,25,535,25z"/>
<g class="st1">
	<path class="st6" d="M126.8,194.3V63.5L156,64v52l46-51h37l-46,50l48.3,79.3L205,194l-32-57l-18,18v39L126.8,194.3z"/>
	<path class="st6" d="M348.5,194.3L317,193l-10-28h-46l-10,29l-29.8,0.3l49.5-130.8h27.1L348.5,194.3z M297,140l-14-38l-13,38H297z"
		/>
	<path class="st6" d="M341.8,194.3V63.5h54c16.7,0,29.2,2.6,37.5,7.8c8.3,5.2,12.4,14.8,12.4,28.8c0,21-9.2,33.5-31.6,36.9
		c8.7,4.6,16.1,15,26.3,31.7l15.5,25.6L422,193l-26-40c-2.7-4.2-4.6-7-8-9c-3.4-2-7.8-2-15-2h-3l1,52L341.8,194.3z M370,117l17,1
		c12.9,0,19,0,23-3c4-3,5-5.2,5-12c0-6-1.3-7.8-5-10c-3.7-2.2-8.2-3-22-3h-18V117z"/>
	<path class="st6" d="M683.8,194.3V63.5h54c16.7,0,29.2,2.6,37.5,7.8c8.3,5.2,12.4,14.8,12.4,28.8c0,21-9.2,33.5-31.6,36.9
		c8.7,4.6,16.1,15,26.3,31.7l15.5,25.6L764,193l-26-40c-2.7-4.2-4.6-7-8-9c-3.4-2-7.8-2-15-2h-3l1,52L683.8,194.3z M712,117l17,1
		c12.9,0,19,0,23-3c4-3,5-5.2,5-12c0-6-1.3-7.8-5-10c-3.7-2.2-8.2-3-22-3h-18V117z"/>
	<path class="st6" d="M449,194.3V63.5l40,0.5l20,79l20.9-79.3l41.6-0.2v130.8L543,194l-1-82l-19.4,82.3L496,194l-20-83v83L449,194.3
		z"/>
	<path class="st6" d="M691,194.3l-32-0.3l-12-29h-43l-11,29l-29.3,0.3L610,63l30.4,0.5L691,194.3z M638,139l-14-36l-12,36H638z"/>
	<path class="st6" d="M818,193V90l-35.2-0.4V65H881v25l-34.9-0.4L846,193H818z"/>
</g>
</svg>
