<?xml version="1.0" encoding="utf-8"?>
<!-- Generator: Adobe Illustrator 23.0.2, SVG Export Plug-In . SVG Version: 6.00 Build 0)  -->
<svg version="1.1" id="Layer_1" xmlns="http://www.w3.org/2000/svg" xmlns:xlink="http://www.w3.org/1999/xlink" x="0px" y="0px"
	 viewBox="0 0 185 105" style="enable-background:new 0 0 185 105;" xml:space="preserve">
<style type="text/css">
	.st0{fill:#3E0000;}
	.st1{fill:#FFFFFF;}
	.st2{fill:#E51E25;}
</style>
<g>
	<path class="st0" d="M70.6,21.2c0,0-1-18.7-13.9-20.2c0,0,5.3,11.3-12.5,8c-7.8-1.5-14-1.9-18.8-1.8c-0.4,0-0.9,0-1.3,0
		c-2.6,0-5.1,0.4-7.4,1.2c-1.3,0.4-2.3,0.8-3,1.2l0,0c-7.7,3.8-13,11.8-13,21C0.8,43.5,11.2,54,24.2,54c0.3,0,0.6,0,0.9,0v49.9h19.8
		v-52C57,47.7,72.1,38.9,70.6,21.2z"/>
	<path class="st1" d="M51.8,23.2c-1.8,0-3.3,1.5-3.3,3.3s1.5,3.3,3.3,3.3s3.3-1.5,3.3-3.3S53.6,23.2,51.8,23.2z M51.8,27.8
		c-0.7,0-1.3-0.6-1.3-1.3c0-0.7,0.6-1.3,1.3-1.3s1.3,0.6,1.3,1.3C53.1,27.2,52.5,27.8,51.8,27.8z"/>
	<g>
		<path class="st2" d="M110.7,27.6V16.2h-4.1v12.2l0,0c0,0.9,0.7,1.6,1.6,1.6h2.5h8.2v-1.6h-7.4C111.1,28.4,110.7,28,110.7,27.6z"/>
		<polygon class="st2" points="152.7,16.2 147.9,16.2 143.5,16.2 137.7,16.2 137.7,17.9 143.5,17.9 143.5,30.1 147.9,30.1 
			147.9,17.9 152.7,17.9 		"/>
		<polygon class="st2" points="169.3,16.2 163.6,16.2 159.2,16.2 154.3,16.2 154.3,17.9 159.2,17.9 159.2,30.1 163.6,30.1 
			163.6,17.9 169.3,17.9 		"/>
		<path class="st2" d="M184,17.9v-1.7h-8.9h-2.4c-0.9,0-1.7,0.7-1.7,1.7l0,0v4v1.7v4.9l0,0c0,0.9,0.7,1.7,1.7,1.7h2.4h8.9v-1.7h-8.1
			c-0.5,0-0.9-0.4-0.9-0.9v-4h8.8v-1.7H175v-3.2c0-0.5,0.4-0.9,0.9-0.9h8.1V17.9z"/>
		<path class="st2" d="M128.1,15.8c-4.9,0-8.8,3.3-8.8,7.4s3.9,7.4,8.8,7.4c4.9,0,8.8-3.3,8.8-7.4S133,15.8,128.1,15.8z M128.2,29.2
			c-2.5,0-4.6-2.7-4.6-5.9s2.1-5.9,4.6-5.9s4.6,2.7,4.6,5.9S130.7,29.2,128.2,29.2z"/>
	</g>
	<path class="st0" d="M162.7,46.4c-11.8,0-21.3,9.6-21.3,21.3c0,11.8,9.6,21.3,21.3,21.3c11.8,0,21.3-9.6,21.3-21.3
		S174.4,46.4,162.7,46.4z M162.7,76.9c-5,0-9.1-4.1-9.1-9.1s4.1-9.1,9.1-9.1s9.1,4.1,9.1,9.1S167.7,76.9,162.7,76.9z"/>
	<path class="st2" d="M56.7,46.4c-11.8,0-21.3,9.6-21.3,21.3C35.4,79.5,45,89,56.7,89S78,79.5,78,67.7C78,56,68.5,46.4,56.7,46.4z
		 M56.7,76.9c-5,0-9.1-4.1-9.1-9.1s4.1-9.1,9.1-9.1s9.1,4.1,9.1,9.1C65.8,72.8,61.7,76.9,56.7,76.9z"/>
	<path class="st0" d="M92.8,46.4C81,46.4,71.5,56,71.5,67.7c0,0.3,0,0.7,0.1,1h-0.1v35.1h13.9V87.7c2.3,0.9,4.8,1.4,7.4,1.4
		c11.8,0,21.3-9.6,21.3-21.3C114.2,56,104.6,46.4,92.8,46.4z M92.8,76.9c-5,0-9.1-4.1-9.1-9.1s4.1-9.1,9.1-9.1s9.1,4.1,9.1,9.1
		S97.9,76.9,92.8,76.9z"/>
	<path class="st2" d="M127.5,46.4c-11.8,0-21.3,9.6-21.3,21.3c0,0.3,0,0.7,0.1,1h-0.1v35.1h13.9V87.7c2.3,0.9,4.8,1.4,7.4,1.4
		c11.8,0,21.3-9.6,21.3-21.3C148.9,56,139.3,46.4,127.5,46.4z M127.5,76.9c-5,0-9.1-4.1-9.1-9.1s4.1-9.1,9.1-9.1s9.1,4.1,9.1,9.1
		C136.7,72.8,132.6,76.9,127.5,76.9z"/>
	<path class="st1" d="M20.9,39.1L20.9,39.1c-0.6,0-1.1-0.5-1.1-1.1V26.9c0-0.6,0.5-1.1,1.1-1.1l0,0c0.6,0,1.1,0.5,1.1,1.1V38
		C22,38.6,21.5,39.1,20.9,39.1z"/>
	<path class="st1" d="M45.9,39.1L45.9,39.1c-0.6,0-1.1-0.5-1.1-1.1V26.9c0-0.6,0.5-1.1,1.1-1.1l0,0c0.6,0,1.1,0.5,1.1,1.1V38
		C47.1,38.6,46.6,39.1,45.9,39.1z"/>
	<path class="st1" d="M52.6,29.5L52.6,29.5c0,0.6-0.5,1.1-1.1,1.1H40.4c-0.6,0-1.1-0.5-1.1-1.1l0,0c0-0.6,0.5-1.1,1.1-1.1h11.1
		C52.1,28.3,52.6,28.8,52.6,29.5z"/>
	<path class="st1" d="M51.3,38.1L51.3,38.1c-0.6,0.3-1.3,0-1.5-0.6L48.2,34c-0.3-0.6,0-1.3,0.6-1.5l0,0c0.6-0.3,1.3,0,1.5,0.6
		l1.6,3.5C52.1,37.2,51.8,37.8,51.3,38.1z"/>
	<path class="st1" d="M27.5,34.4L27.5,34.4c-0.4,0.5-1.1,0.6-1.6,0.3L20.8,31c-0.5-0.4-0.6-1.1-0.3-1.6l0,0c0.4-0.5,1.1-0.6,1.6-0.3
		l5.1,3.7C27.8,33.2,27.9,33.9,27.5,34.4z"/>
	<path class="st1" d="M30.1,34.9L30.1,34.9c-0.6,0-1.2-0.4-1.2-1.1l-0.1-2c0-0.6,0.4-1.2,1.1-1.2l0,0c0.6,0,1.2,0.4,1.2,1.1l0.1,2
		C31.2,34.3,30.7,34.9,30.1,34.9z"/>
	<path class="st1" d="M33.4,34.6L33.4,34.6c-0.6,0-1.2-0.4-1.2-1.1l-0.1-2c0-0.6,0.4-1.2,1.1-1.2l0,0c0.6,0,1.2,0.4,1.2,1.1l0.1,2
		C34.5,34,34,34.6,33.4,34.6z"/>
	<path class="st1" d="M35.8,39L35.8,39c-0.6-0.1-1-0.7-0.9-1.3l1.3-6.4c0.1-0.6,0.7-1,1.3-0.9l0,0c0.6,0.1,1,0.7,0.9,1.3l-1.3,6.4
		C37,38.7,36.4,39.1,35.8,39z"/>
	<path class="st1" d="M40,37.7L40,37.7c0.6,0.3,1.3,0,1.5-0.6l1.6-3.5c0.3-0.6,0-1.3-0.6-1.5l0,0c-0.6-0.3-1.3,0-1.5,0.6l-1.6,3.5
		C39.2,36.7,39.5,37.4,40,37.7z"/>
</g>
</svg>
